<svg width="310" height="60" viewBox="0 0 310 60" fill="none" xmlns="http://www.w3.org/2000/svg">
<g clip-path="url(#clip0_259_645)">
<path d="M39.2507 43.4L33.0426 59.6H31.4406V43.4H27.4354L23.0297 51.6L18.8243 43.4H14.8191V59.6H12.8165L6.80879 43.4H3.40439L0 52.2L0.400517 23H47.6615V56.8L42.655 43.4H39.2507Z" fill="#30261C"/>
<path d="M5.20675 47.3999L3.00391 53.5999H7.40959L5.20675 47.3999Z" fill="#30261C"/>
<path d="M1.40234 59.3998L2.60389 55.7998H7.61036L9.01216 59.3998H1.40234Z" fill="#30261C"/>
<path d="M40.8513 47.2002L38.6484 53.4002H43.0541L40.8513 47.2002Z" fill="#30261C"/>
<path d="M37.0469 59.2001L38.2484 55.6001H43.2549L44.6567 59.2001H37.0469Z" fill="#30261C"/>
<path d="M18.4219 59.4002V50.2002L22.2268 56.8002H24.2294L27.6338 50.2002V59.4002H18.4219Z" fill="#30261C"/>
<path d="M0.199219 22.0001V20.6001H47.4602V22.0001H0.199219Z" fill="#30261C"/>
<path d="M0.199219 19.4V18H47.4602V19.4H0.199219Z" fill="#30261C"/>
<path d="M0.199219 17.0001V15.6001H47.4602V17.0001H0.199219Z" fill="#30261C"/>
<path d="M0.199219 15.0002V12.2002H47.4602V15.0002H0.199219Z" fill="#30261C"/>
<path d="M49.8633 59.9999V15.3999L65.884 51.3999L49.8633 59.9999Z" fill="#D29E0D"/>
<path d="M67.4855 3.7998L51.4648 11.5998L67.085 48.3998L67.4855 3.7998Z" fill="#D29E0D"/>
<path d="M19.6243 1.2002L0.199219 10.0002H47.8607L67.5233 1.2002H19.6243Z" fill="#D29E0D"/>
<path d="M94.3419 9.19189H97.8184L104.3 26.7999H100.773L99.1345 22.4103H92.9762L91.3621 26.7999H87.8359L94.3419 9.19189ZM98.5137 20.0047L96.0802 12.7383L93.5473 20.0047H98.5137ZM120.363 26.7999V15.2431L115.843 23.8487H113.931L109.412 15.2431V26.7999H105.985V9.19189H109.66L114.875 19.2111L120.139 9.19189H123.79V26.7999H120.363ZM132.015 9.19189H135.491L141.973 26.7999H138.446L136.808 22.4103H130.649L129.035 26.7999H125.509L132.015 9.19189ZM136.187 20.0047L133.753 12.7383L131.22 20.0047H136.187ZM89.5493 51.1999V33.5919H92.9762V48.1991H101.965V51.1999H89.5493ZM116.045 48.1991V51.1999H103.803V33.5919H115.821V36.5927H107.229V40.8335H114.654V43.6111H107.229V48.1991H116.045ZM125.478 51.3239C124.336 51.3239 123.252 51.0923 122.225 50.6295C121.215 50.1667 120.321 49.5299 119.543 48.7199C118.782 47.8931 118.186 46.9343 117.755 45.8431C117.325 44.7519 117.11 43.5699 117.11 42.2967C117.11 41.0899 117.325 39.9572 117.755 38.8991C118.186 37.8244 118.79 36.882 119.568 36.0719C120.346 35.2618 121.257 34.6252 122.3 34.1623C123.343 33.6994 124.477 33.4679 125.702 33.4679C127.357 33.4679 128.773 33.8234 129.948 34.5343C131.14 35.2287 132.034 36.1546 132.63 37.3119L130.072 39.1967C129.625 38.3204 128.996 37.6508 128.185 37.1879C127.39 36.725 126.521 36.4935 125.577 36.4935C124.832 36.4935 124.154 36.6506 123.541 36.9647C122.929 37.2788 122.399 37.7087 121.952 38.2543C121.505 38.7999 121.157 39.4282 120.909 40.1391C120.678 40.8499 120.561 41.6023 120.561 42.3959C120.561 43.2391 120.686 44.0163 120.934 44.7271C121.199 45.4379 121.563 46.0579 122.026 46.5871C122.507 47.1163 123.061 47.5379 123.69 47.8519C124.319 48.1495 125.015 48.2983 125.776 48.2983C126.67 48.2983 127.523 48.0667 128.334 47.6039C129.162 47.1411 129.931 46.4631 130.643 45.5703V48.9431C129.17 50.5303 127.448 51.3239 125.478 51.3239ZM130.395 44.6527H126.844V42.1479H133.226V51.1999H130.395V44.6527ZM140.691 33.5919H144.167L150.648 51.1999H147.122L145.483 46.8103H139.325L137.711 51.1999H134.185L140.691 33.5919ZM144.862 44.4047L142.429 37.1383L139.896 44.4047H144.862ZM152.334 51.1999V33.5919H155.76V48.1991H164.75V51.1999H152.334ZM182.056 38.2047C181.941 38.089 181.725 37.9319 181.411 37.7335C181.113 37.5351 180.74 37.345 180.293 37.1631C179.863 36.9812 179.391 36.8242 178.878 36.6919C178.365 36.5431 177.843 36.4687 177.313 36.4687C176.386 36.4687 175.683 36.6423 175.203 36.9895C174.739 37.3367 174.507 37.8244 174.507 38.4527C174.507 38.9322 174.656 39.3124 174.954 39.5935C175.252 39.8746 175.699 40.1143 176.295 40.3127C176.891 40.5111 177.636 40.7259 178.53 40.9575C179.689 41.2387 180.691 41.5859 181.535 41.9991C182.396 42.3959 183.05 42.9251 183.497 43.5863C183.96 44.2311 184.192 45.0907 184.192 46.1655C184.192 47.1079 184.018 47.9179 183.67 48.5959C183.323 49.2571 182.843 49.7947 182.23 50.2079C181.618 50.6211 180.922 50.9271 180.144 51.1255C179.366 51.3075 178.539 51.3983 177.661 51.3983C176.784 51.3983 175.906 51.3075 175.029 51.1255C174.151 50.9435 173.307 50.6875 172.496 50.3567C171.685 50.0095 170.94 49.5963 170.261 49.1167L171.776 46.1655C171.925 46.3143 172.19 46.5127 172.571 46.7607C172.951 46.9923 173.415 47.2319 173.961 47.4799C174.507 47.7115 175.103 47.9099 175.749 48.0751C176.395 48.2403 177.049 48.3231 177.711 48.3231C178.638 48.3231 179.341 48.1659 179.821 47.8519C180.302 47.5379 180.542 47.0915 180.542 46.5127C180.542 45.9835 180.351 45.5703 179.97 45.2727C179.59 44.9751 179.06 44.7187 178.381 44.5039C177.702 44.2723 176.9 44.0243 175.973 43.7599C174.863 43.4459 173.936 43.0987 173.191 42.7183C172.446 42.3215 171.892 41.8255 171.528 41.2303C171.164 40.6351 170.981 39.8911 170.981 38.9983C170.981 37.7914 171.263 36.7828 171.826 35.9727C172.405 35.146 173.183 34.526 174.16 34.1127C175.137 33.6828 176.221 33.4679 177.413 33.4679C178.241 33.4679 179.018 33.5588 179.747 33.7407C180.492 33.9226 181.187 34.1623 181.833 34.4599C182.479 34.7575 183.058 35.0799 183.571 35.4271L182.056 38.2047ZM194.057 51.3239C192.766 51.3239 191.591 51.0759 190.531 50.5799C189.488 50.0839 188.586 49.4143 187.824 48.5711C187.079 47.7115 186.5 46.7523 186.086 45.6943C185.672 44.6195 185.465 43.5203 185.465 42.3959C185.465 41.2219 185.681 40.1059 186.111 39.0479C186.558 37.9732 187.162 37.0226 187.924 36.1959C188.702 35.3527 189.612 34.6914 190.655 34.2119C191.715 33.7159 192.874 33.4679 194.132 33.4679C195.406 33.4679 196.565 33.7242 197.608 34.2367C198.668 34.7492 199.57 35.4354 200.315 36.2951C201.06 37.1548 201.639 38.1138 202.053 39.1719C202.467 40.2299 202.674 41.3211 202.674 42.4455C202.674 43.6027 202.459 44.7187 202.028 45.7935C201.598 46.8515 200.994 47.8023 200.215 48.6455C199.454 49.4723 198.544 50.1251 197.484 50.6047C196.441 51.0843 195.299 51.3239 194.057 51.3239ZM188.942 42.3959C188.942 43.1563 189.058 43.8923 189.289 44.6031C189.521 45.3139 189.852 45.9507 190.283 46.5127C190.73 47.0583 191.268 47.4963 191.897 47.8271C192.542 48.1411 193.271 48.2983 194.082 48.2983C194.91 48.2983 195.646 48.1331 196.292 47.8023C196.938 47.4551 197.476 47.0003 197.906 46.4383C198.337 45.8595 198.659 45.2231 198.874 44.5287C199.106 43.8179 199.222 43.1067 199.222 42.3959C199.222 41.6355 199.098 40.9079 198.85 40.2135C198.618 39.5026 198.279 38.8743 197.832 38.3287C197.401 37.7666 196.863 37.3284 196.217 37.0143C195.589 36.6836 194.877 36.5183 194.082 36.5183C193.238 36.5183 192.493 36.6919 191.847 37.0391C191.218 37.3698 190.688 37.8162 190.258 38.3783C189.828 38.9404 189.496 39.5687 189.264 40.2631C189.049 40.9575 188.942 41.6683 188.942 42.3959ZM205.054 51.1999V33.5919H208.481V48.1991H217.47V51.1999H205.054ZM226.321 51.3239C224.914 51.3239 223.714 51.0923 222.72 50.6295C221.744 50.1499 220.949 49.4971 220.337 48.6703C219.741 47.8435 219.302 46.9095 219.02 45.8679C218.739 44.8099 218.598 43.7103 218.598 42.5695V33.5919H222.025V42.5695C222.025 43.2971 222.092 44.0079 222.224 44.7023C222.373 45.3803 222.613 45.9919 222.944 46.5375C223.275 47.0831 223.714 47.5131 224.26 47.8271C224.806 48.1411 225.485 48.2983 226.296 48.2983C227.124 48.2983 227.811 48.1411 228.357 47.8271C228.92 47.4963 229.359 47.0583 229.673 46.5127C230.005 45.9671 230.245 45.3555 230.394 44.6775C230.543 43.9831 230.617 43.2803 230.617 42.5695V33.5919H234.019V42.5695C234.019 43.7763 233.87 44.9091 233.572 45.9671C233.291 47.0251 232.836 47.9595 232.206 48.7695C231.594 49.5631 230.799 50.1915 229.822 50.6543C228.846 51.1007 227.679 51.3239 226.321 51.3239ZM250.408 36.5927H244.771V51.1999H241.369V36.5927H235.732V33.5919H250.408V36.5927ZM252.349 51.1999V33.5919H255.776V51.1999H252.349ZM266.73 51.3239C265.438 51.3239 264.263 51.0759 263.204 50.5799C262.161 50.0839 261.259 49.4143 260.497 48.5711C259.752 47.7115 259.173 46.7523 258.759 45.6943C258.345 44.6195 258.138 43.5203 258.138 42.3959C258.138 41.2219 258.353 40.1059 258.783 39.0479C259.23 37.9732 259.835 37.0226 260.596 36.1959C261.374 35.3527 262.285 34.6914 263.328 34.2119C264.387 33.7159 265.546 33.4679 266.804 33.4679C268.079 33.4679 269.238 33.7242 270.281 34.2367C271.34 34.7492 272.242 35.4354 272.987 36.2951C273.732 37.1548 274.312 38.1138 274.726 39.1719C275.14 40.2299 275.346 41.3211 275.346 42.4455C275.346 43.6027 275.131 44.7187 274.701 45.7935C274.271 46.8515 273.666 47.8023 272.888 48.6455C272.127 49.4723 271.216 50.1251 270.156 50.6047C269.114 51.0843 267.971 51.3239 266.73 51.3239ZM261.614 42.3959C261.614 43.1563 261.73 43.8923 261.962 44.6031C262.194 45.3139 262.525 45.9507 262.955 46.5127C263.402 47.0583 263.94 47.4963 264.569 47.8271C265.215 48.1411 265.943 48.2983 266.754 48.2983C267.582 48.2983 268.319 48.1331 268.965 47.8023C269.61 47.4551 270.148 47.0003 270.579 46.4383C271.009 45.8595 271.332 45.2231 271.547 44.5287C271.779 43.8179 271.895 43.1067 271.895 42.3959C271.895 41.6355 271.771 40.9079 271.522 40.2135C271.291 39.5026 270.951 38.8743 270.504 38.3287C270.074 37.7666 269.536 37.3284 268.89 37.0143C268.261 36.6836 267.549 36.5183 266.754 36.5183C265.91 36.5183 265.165 36.6919 264.52 37.0391C263.891 37.3698 263.361 37.8162 262.93 38.3783C262.5 38.9404 262.169 39.5687 261.937 40.2631C261.722 40.9575 261.614 41.6683 261.614 42.3959ZM281.153 39.8911V51.1999H277.727V33.5919H280.458L289.572 45.1983V33.6167H292.998V51.1999H290.143L281.153 39.8911ZM306.922 38.2047C306.806 38.089 306.591 37.9319 306.276 37.7335C305.978 37.5351 305.606 37.345 305.159 37.1631C304.728 36.9812 304.257 36.8242 303.743 36.6919C303.23 36.5431 302.709 36.4687 302.179 36.4687C301.252 36.4687 300.548 36.6423 300.068 36.9895C299.605 37.3367 299.373 37.8244 299.373 38.4527C299.373 38.9322 299.522 39.3124 299.82 39.5935C300.118 39.8746 300.565 40.1143 301.161 40.3127C301.757 40.5111 302.502 40.7259 303.396 40.9575C304.554 41.2387 305.556 41.5859 306.4 41.9991C307.261 42.3959 307.915 42.9251 308.362 43.5863C308.826 44.2311 309.058 45.0907 309.058 46.1655C309.058 47.1079 308.884 47.9179 308.536 48.5959C308.188 49.2571 307.708 49.7947 307.096 50.2079C306.483 50.6211 305.788 50.9271 305.01 51.1255C304.232 51.3075 303.404 51.3983 302.527 51.3983C301.649 51.3983 300.772 51.3075 299.894 51.1255C299.017 50.9435 298.173 50.6875 297.362 50.3567C296.55 50.0095 295.805 49.5963 295.127 49.1167L296.641 46.1655C296.79 46.3143 297.055 46.5127 297.436 46.7607C297.817 46.9923 298.28 47.2319 298.827 47.4799C299.373 47.7115 299.969 47.9099 300.615 48.0751C301.26 48.2403 301.914 48.3231 302.576 48.3231C303.503 48.3231 304.207 48.1659 304.687 47.8519C305.167 47.5379 305.407 47.0915 305.407 46.5127C305.407 45.9835 305.217 45.5703 304.836 45.2727C304.455 44.9751 303.925 44.7187 303.247 44.5039C302.568 44.2723 301.765 44.0243 300.838 43.7599C299.729 43.4459 298.802 43.0987 298.057 42.7183C297.312 42.3215 296.757 41.8255 296.393 41.2303C296.029 40.6351 295.847 39.8911 295.847 38.9983C295.847 37.7914 296.128 36.7828 296.691 35.9727C297.27 35.146 298.048 34.526 299.025 34.1127C300.002 33.6828 301.086 33.4679 302.278 33.4679C303.106 33.4679 303.884 33.5588 304.613 33.7407C305.358 33.9226 306.053 34.1623 306.698 34.4599C307.344 34.7575 307.923 35.0799 308.437 35.4271L306.922 38.2047Z" fill="#30261C"/>
<path d="M305.263 9L303.746 6.49356H302.614V9H302V3H303.842C304.526 3 305.044 3.16023 305.395 3.48069C305.751 3.80114 305.93 4.22175 305.93 4.74249C305.93 5.1774 305.801 5.54936 305.544 5.85837C305.292 6.16166 304.918 6.35908 304.421 6.45064L306 9H305.263ZM302.614 6.00429H303.851C304.33 6.00429 304.69 5.88984 304.93 5.66094C305.175 5.43205 305.298 5.12589 305.298 4.74249C305.298 4.34764 305.181 4.04435 304.947 3.83262C304.713 3.61516 304.345 3.50644 303.842 3.50644H302.614V6.00429Z" fill="#30261C"/>
<path d="M310 5.99999C310 9.31372 307.314 12 304 12C300.686 12 298 9.31372 298 5.99999C298 2.68628 300.686 0 304 0C307.314 0 310 2.68628 310 5.99999ZM298.387 5.99999C298.387 9.09993 300.9 11.6129 304 11.6129C307.1 11.6129 309.613 9.09993 309.613 5.99999C309.613 2.90005 307.1 0.38706 304 0.38706C300.9 0.38706 298.387 2.90005 298.387 5.99999Z" fill="#30261C"/>
</g>
<defs>
<clipPath id="clip0_259_645">
<rect width="310" height="60" fill="white"/>
</clipPath>
</defs>
</svg>
